<svg width="20" height="18" viewBox="0 0 20 18" fill="none" xmlns="http://www.w3.org/2000/svg">
    <path
        d="M0.319672 8.22294L7.54238 1.00007C7.74856 0.793895 8.02335 0.680725 8.31635 0.680725C8.60968 0.680725 8.88432 0.794057 9.09049 1.00007L9.74626 1.656C9.95228 1.86185 10.0658 2.13681 10.0658 2.42998C10.0658 2.72298 9.95228 3.00721 9.74626 3.21306L5.53264 7.43595H18.9195C19.5231 7.43595 20 7.90847 20 8.51221V9.43952C20 10.0433 19.5231 10.5634 18.9195 10.5634H5.48483L9.7461 14.8099C9.95211 15.0161 10.0656 15.2835 10.0656 15.5767C10.0656 15.8695 9.95211 16.1409 9.7461 16.3469L9.09033 17.0008C8.88416 17.2069 8.60952 17.3193 8.31619 17.3193C8.02319 17.3193 7.74839 17.2055 7.54222 16.9993L0.319508 9.77659C0.112844 9.56976 -0.000812531 9.29366 0 9.00017C-0.000650406 8.7057 0.112843 8.42944 0.319672 8.22294Z"
        fill="#C2CDE7" />
</svg>