<svg width="52" height="34" viewBox="0 0 52 34" fill="none" xmlns="http://www.w3.org/2000/svg">
    <g clip-path="url(#clip0_15969_4524)">
        <path fill-rule="evenodd" clip-rule="evenodd"
            d="M8.6988 33.8296H9.95392V27.3249H8.52362L6.422 30.137L4.32032 27.3249H2.86082V33.8296H4.14518V29.1144L6.27602 31.9549H6.50956L8.6988 29.1144V33.8296ZM44.106 27.2966H42.5881V27.3534L45.186 31.1312V33.8296H46.4412V31.1312L49.0974 27.3534V27.2966H47.5796L45.799 29.995L44.106 27.2966ZM42.4713 33.7444L40.4281 31.5288C41.7124 31.2732 42.121 30.3643 42.121 29.4837C42.121 28.3476 41.3037 27.325 39.7275 27.2966C38.6475 27.325 37.5966 27.2966 36.5166 27.2966V33.8296H37.801V31.6708H38.9978L40.9535 33.8296H42.4713V33.7444ZM39.7275 28.4612C40.5156 28.4612 40.8659 28.9724 40.8659 29.5121C40.8659 30.0234 40.5156 30.5631 39.7275 30.5631H37.801V28.4612H39.7275ZM35.5534 32.6366H31.7879V31.1596H35.4075V30.0234H31.7879V28.4896H35.5534V27.2966H30.5327C30.5327 29.4837 30.5327 31.6708 30.5327 33.8296H35.5534V32.6366ZM26.3878 33.8296H27.643V28.4327H29.7738V27.2966C27.8473 27.2966 26.1835 27.2966 24.2569 27.2966V28.4327H26.3878V33.8296ZM23.4688 28.4043C22.9726 27.3818 21.8926 27.0977 20.8417 27.0977C19.5866 27.0977 18.2438 27.6658 18.2438 29.0008C18.2438 30.4494 19.499 30.8187 20.8709 30.9607C21.7758 31.0744 22.418 31.33 22.418 31.9265C22.418 32.6366 21.6883 32.9207 20.8709 32.9207C20.0828 32.9207 19.2947 32.5798 19.0028 31.8697L17.9519 32.4094C18.4482 33.6024 19.499 34 20.8709 34C22.3596 34 23.6731 33.3751 23.6731 31.9265C23.6731 30.3643 22.3888 30.0234 20.9877 29.853C20.1703 29.7677 19.4698 29.5973 19.4698 29.0293C19.4698 28.5463 19.9369 28.1771 20.8709 28.1771C21.6006 28.1771 22.2428 28.518 22.4764 28.8872L23.4688 28.4043ZM16.4632 33.8296H17.8644L14.8578 27.2966H13.4567L10.4502 33.8296H11.8221L12.4059 32.6082H15.9087L16.4632 33.8296ZM15.4124 31.472H12.9021L14.1573 28.6884L15.4124 31.472Z"
            fill="white" />
        <path fill-rule="evenodd" clip-rule="evenodd"
            d="M41.8877 6.64666C40.2239 3.35173 36.6919 2.41438 33.2767 2.41438C31.6713 2.41438 30.0074 2.72683 28.5771 3.32332V0C24.5197 0 21.4256 0 17.4266 0V4.20387H23.9068V13.7762C23.9068 17.412 23.0311 20.2524 18.8278 20.2524C15.1207 20.2524 13.1066 18.6334 12.6687 15.4236H8.05673C8.64051 21.3318 12.9606 24.5131 18.8278 24.5131C21.8927 24.5131 23.2938 23.5757 25.1327 21.9851C27.0009 24.2006 29.8615 25.0243 33.3643 25.0243C38.2389 25.0243 42.559 22.9792 42.559 18.2357C42.559 13.1513 38.2974 11.9867 33.7437 11.447C31.1166 11.1345 28.8399 10.6233 28.8399 8.7486C28.8399 7.15791 30.3285 5.90812 33.3934 5.90812C35.7578 5.90812 37.8303 7.07274 38.5892 8.29413L41.8877 6.64666ZM28.5771 14.0318C29.9782 14.5999 31.6421 14.884 33.3934 15.0828C36.3124 15.3953 38.4725 16.219 38.4725 18.2357C38.4725 20.5365 36.0205 21.4454 33.4226 21.4454C30.9999 21.4454 28.7231 20.5932 27.5847 18.6901C28.1977 17.2983 28.5188 15.7361 28.5771 14.0318Z"
            fill="white" />
        <path fill-rule="evenodd" clip-rule="evenodd"
            d="M43.697 24.7972C47.9587 25.5641 49.9436 23.7178 49.9436 20.1673V16.2191C49.9436 15.1397 50.1479 13.8615 51.9869 13.8615V11.3051C50.1479 11.3051 49.9436 9.9985 49.9436 8.9475V4.99928C49.9436 1.42032 47.9587 -0.397571 43.697 0.369351V3.03937C45.5651 2.5565 46.2657 3.2098 46.2657 5.16971V8.9475C46.2657 10.6234 46.1197 11.9868 48.2798 12.5833C46.1197 13.1798 46.2657 14.5716 46.2657 16.2191V19.9969C46.2657 21.9567 45.8279 22.3544 43.697 22.1272V24.7972Z"
            fill="white" />
        <path fill-rule="evenodd" clip-rule="evenodd"
            d="M8.28992 24.7972C4.02819 25.5641 2.0141 23.7178 2.0141 20.1673V16.2191C2.0141 15.1397 1.80976 13.8615 0 13.8615V11.3051C1.80976 11.3051 2.0141 9.9985 2.0141 8.9475V4.99928C2.0141 1.42032 4.02819 -0.397571 8.28992 0.369351V3.03937C6.42177 2.5565 5.7212 3.2098 5.7212 5.16971V8.9475C5.7212 10.6234 5.86714 11.9868 3.7071 12.5833C5.86714 13.1798 5.7212 14.5716 5.7212 16.2191V19.9969C5.7212 21.9567 6.15903 22.3544 8.28992 22.1272V24.7972Z"
            fill="white" />
    </g>
    <defs>
        <clipPath id="clip0_15969_4524">
            <rect width="52" height="34" fill="white" />
        </clipPath>
    </defs>
</svg>