<svg width="24" height="22" viewBox="0 0 24 22" fill="none" xmlns="http://www.w3.org/2000/svg">
    <path fill-rule="evenodd" clip-rule="evenodd"
        d="M4.09302 8.63693C5.10882 5.23232 8.26536 2.75 11.9999 2.75C15.1352 2.75 17.8637 4.49849 19.2606 7.07888L19.7961 8.06822L21.7748 6.99707L21.2393 6.00775C19.4649 2.73016 15.9936 0.5 11.9999 0.5C7.58167 0.5 3.80215 3.22808 2.25171 7.09171V4.625V3.5H0.00170898V4.625V9.76193C0.00170898 10.3832 0.505388 10.8869 1.12671 10.8869H6.26364H7.38864V8.63693H6.26364H4.09302ZM19.9068 13.3631H17.7363H16.6113V11.1131H17.7363H22.8732C23.4945 11.1131 23.9982 11.6168 23.9982 12.2381V17.375V18.5H21.7482V17.375V14.9079C20.1978 18.7718 16.4183 21.5 11.9999 21.5C8.02585 21.5 4.56916 19.2919 2.78701 16.0408L2.24623 15.0543L4.21923 13.9727L4.76001 14.9592C6.16311 17.5187 8.88013 19.25 11.9999 19.25C15.7344 19.25 18.891 16.7677 19.9068 13.3631Z"
        fill="#79FFE1" />
</svg>